<svg xmlns="http://www.w3.org/2000/svg" viewBox="0 0 1008.57 231.32"><defs><style>.cls-1{opacity: 0;}.cls-2{fill:#0e0c51;}.cls-3{fill:#fff;}</style></defs><title>Recurso 3</title><g id="Capa_2"><g id="Capa_1-2"><circle style="min-height: 45px; " class="cls-1" cx="106.5" cy="106.5" r="106.5"/><path class="cls-2" d="M164.86,67.07c-.6-8.09-7.69-14.48-16.49-14.87a18.65,18.65,0,0,0-9.16,1.93,15.56,15.56,0,0,0-8.65,16.73l0,.16,4.93,18.18-8.6.07V70.14H117.5V89.33l-6.29,0V70h-9.42V89.45l-6.29,0V69.84H86.08V89.56l-8.71.07,5-18.45.07-.32a15.56,15.56,0,0,0-8.65-16.73,18.65,18.65,0,0,0-9.16-1.93c-8.8.39-15.89,6.78-16.49,14.87a15.15,15.15,0,0,0,4.63,12.05A18.19,18.19,0,0,0,65.48,84.2V75.53a8.26,8.26,0,0,1-5.83-2.33,7,7,0,0,1-2.12-5.54c.27-3.63,3.59-6.62,7.55-6.8a8.63,8.63,0,0,1,4.21.88,7.09,7.09,0,0,1,3.89,7.52l-10.64,39.3c-4.37,16.13,1.76,33.09,15.63,43.21a47.66,47.66,0,0,0,7.91,4.65h0a48.38,48.38,0,0,0,20.35,4.39v-4.24h.08v4.24a48.57,48.57,0,0,0,19.66-4.08h.72v-.32a47.66,47.66,0,0,0,7.91-4.65c13.87-10.12,20-27.08,15.63-43.21l-10.64-39.3a7.09,7.09,0,0,1,3.89-7.52,8.63,8.63,0,0,1,4.21-.88c4,.18,7.28,3.17,7.55,6.8a7,7,0,0,1-2.12,5.54,8.26,8.26,0,0,1-5.83,2.33V84.2a18.19,18.19,0,0,0,12.71-5.08A15.15,15.15,0,0,0,164.86,67.07ZM117.5,98v52.6a39.84,39.84,0,0,1-6.29,1.28V98.05Zm-15.71.12v53.76a39.84,39.84,0,0,1-6.29-1.28V98.16ZM84,145a32,32,0,0,1-12.34-34.31L75,98.31l11.06-.08v48.14C85.38,145.92,84.69,145.46,84,145Zm45,0c-.68.49-1.37.95-2.07,1.4V97.94l10.94-.08,3.47,12.8A32,32,0,0,1,129,145Z"/></g></g></svg>
