<svg xmlns="http://www.w3.org/2000/svg" viewBox="0 0 1008.57 231.32"><defs><style>.cls-1{opacity: 0;}.cls-2{fill:#0e0c51;}.cls-3{fill:#fff;}</style></defs><title>Recurso 3</title><g id="Capa_2" data-name="Capa 2"><g id="Capa_1-2" data-name="Capa 1"><circle class="cls-1" cx="106.5" cy="106.5" r="106.5"/><path class="cls-2" d="M164.86,67.07c-.6-8.09-7.69-14.48-16.49-14.87a18.65,18.65,0,0,0-9.16,1.93,15.56,15.56,0,0,0-8.65,16.73l0,.16,4.93,18.18-8.6.07V70.14H117.5V89.33l-6.29,0V70h-9.42V89.45l-6.29,0V69.84H86.08V89.56l-8.71.07,5-18.45.07-.32a15.56,15.56,0,0,0-8.65-16.73,18.65,18.65,0,0,0-9.16-1.93c-8.8.39-15.89,6.78-16.49,14.87a15.15,15.15,0,0,0,4.63,12.05A18.19,18.19,0,0,0,65.48,84.2V75.53a8.26,8.26,0,0,1-5.83-2.33,7,7,0,0,1-2.12-5.54c.27-3.63,3.59-6.62,7.55-6.8a8.63,8.63,0,0,1,4.21.88,7.09,7.09,0,0,1,3.89,7.52l-10.64,39.3c-4.37,16.13,1.76,33.09,15.63,43.21a47.66,47.66,0,0,0,7.91,4.65h0a48.38,48.38,0,0,0,20.35,4.39v-4.24h.08v4.24a48.57,48.57,0,0,0,19.66-4.08h.72v-.32a47.66,47.66,0,0,0,7.91-4.65c13.87-10.12,20-27.08,15.63-43.21l-10.64-39.3a7.09,7.09,0,0,1,3.89-7.52,8.63,8.63,0,0,1,4.21-.88c4,.18,7.28,3.17,7.55,6.8a7,7,0,0,1-2.12,5.54,8.26,8.26,0,0,1-5.83,2.33V84.2a18.19,18.19,0,0,0,12.71-5.08A15.15,15.15,0,0,0,164.86,67.07ZM117.5,98v52.6a39.84,39.84,0,0,1-6.29,1.28V98.05Zm-15.71.12v53.76a39.84,39.84,0,0,1-6.29-1.28V98.16ZM84,145a32,32,0,0,1-12.34-34.31L75,98.31l11.06-.08v48.14C85.38,145.92,84.69,145.46,84,145Zm45,0c-.68.49-1.37.95-2.07,1.4V97.94l10.94-.08,3.47,12.8A32,32,0,0,1,129,145Z"/><path class="cls-3" d="M279.38,177.87a79.57,79.57,0,0,1-31.08-29.8q-11.25-19-11.24-42.9t11.36-42.91a80.34,80.34,0,0,1,31.19-29.8Q299.44,21.69,324,21.68a92.63,92.63,0,0,1,36.41,7,74.27,74.27,0,0,1,27.82,20.17L368.78,67.13q-17.64-19-43.37-19a60.78,60.78,0,0,0-29.91,7.3,52.58,52.58,0,0,0-20.64,20.29,58.3,58.3,0,0,0-7.42,29.46,58.28,58.28,0,0,0,7.42,29.45,52.51,52.51,0,0,0,20.64,20.29,60.78,60.78,0,0,0,29.91,7.3q25.74,0,43.37-19.25l19.47,18.56a74.07,74.07,0,0,1-27.94,20.17,93.43,93.43,0,0,1-36.52,7Q299.2,188.65,279.38,177.87Z"/><path class="cls-3" d="M493.65,74.21q14.49,13.1,14.5,39.54v72.58H480.78V171.26a33.75,33.75,0,0,1-15.19,12.4Q455.74,188,441.82,188t-24.35-4.75A37.56,37.56,0,0,1,401.36,170a33.52,33.52,0,0,1-5.68-19.13q0-16.69,12.4-26.79T447.16,114h32v-1.86q0-13-7.77-19.94t-23.07-7a66.79,66.79,0,0,0-20.53,3.25,50.46,50.46,0,0,0-17,9l-11.36-21.1a70.22,70.22,0,0,1,23.42-11.36,104.13,104.13,0,0,1,29-3.95Q479.16,61.1,493.65,74.21Zm-26.43,87.65a27.1,27.1,0,0,0,11.94-14.26V133.23H449.24q-25,0-25,16.46a14.78,14.78,0,0,0,6.26,12.52q6.26,4.65,17.39,4.64A37.4,37.4,0,0,0,467.22,161.86Z"/><path class="cls-3" d="M519.28,14.26h29V186.33h-29Z"/><path class="cls-3" d="M560.55,37.1a16.25,16.25,0,0,1-5.33-12.4,16.28,16.28,0,0,1,5.33-12.41,18.64,18.64,0,0,1,13.22-5A19.16,19.16,0,0,1,587,12.06,15.34,15.34,0,0,1,592.32,24a17.49,17.49,0,0,1-5.22,12.87,18,18,0,0,1-13.33,5.22A18.6,18.6,0,0,1,560.55,37.1Zm-1.39,25.4h29V186.33h-29Z"/><path class="cls-3" d="M631.05,179.84a59.11,59.11,0,0,1-23.54-22.61Q599,142.74,599,124.41t8.47-32.7a59.36,59.36,0,0,1,23.54-22.49A70.23,70.23,0,0,1,664.9,61.1q19,0,34.09,8.12a59.49,59.49,0,0,1,23.54,22.49Q731,106.1,731,124.41t-8.46,32.82A59.24,59.24,0,0,1,699,179.84Q683.92,188,664.9,188A70.22,70.22,0,0,1,631.05,179.84Zm60.29-27.37q10.44-10.66,10.44-28.06T691.34,96.35Q680.9,85.69,664.9,85.69T638.58,96.35Q628.26,107,628.26,124.41t10.32,28.06q10.32,10.68,26.32,10.67T691.34,152.47Z"/><path class="cls-3" d="M842,69a56.94,56.94,0,0,1,22.37,22.26q8.11,14.39,8.12,33.16t-8.12,33.28A56.72,56.72,0,0,1,842,180.07Q827.7,188,809.61,188q-25.05,0-39.66-16.69v60.06H741V62.5h27.6V78.73A44.77,44.77,0,0,1,786.3,65.51a60,60,0,0,1,23.31-4.41Q827.69,61.1,842,69Zm-9.28,83.48Q843,141.81,843,124.41T832.68,96.35q-10.32-10.66-26.32-10.66a37.23,37.23,0,0,0-18.78,4.75A34.27,34.27,0,0,0,774.36,104a41.43,41.43,0,0,0-4.87,20.4,41.44,41.44,0,0,0,4.87,20.41,34.27,34.27,0,0,0,13.22,13.57,37.23,37.23,0,0,0,18.78,4.75Q822.37,163.14,832.68,152.47Z"/><path class="cls-3" d="M1008.11,133.69H910.94a33.67,33.67,0,0,0,13.34,21.68q10.79,8,26.78,8,20.4,0,33.63-13.45l15.53,17.86a52.28,52.28,0,0,1-21.1,15.07,76.87,76.87,0,0,1-28.75,5.1q-20.42,0-36-8.11a58.43,58.43,0,0,1-24-22.61q-8.48-14.49-8.46-32.82a64.76,64.76,0,0,1,8.23-32.58A58.34,58.34,0,0,1,913,69.22,66.67,66.67,0,0,1,946,61.1q18.09,0,32.35,8a56.69,56.69,0,0,1,22.26,22.5q8,14.49,8,33.51Q1008.57,128.13,1008.11,133.69ZM922.42,92.53q-9.63,8.23-11.71,21.91H981q-1.86-13.44-11.37-21.8T946,84.29Q932,84.29,922.42,92.53Z"/></g></g></svg>
